<svg width="72" height="72" viewBox="0 0 72 72" xmlns="http://www.w3.org/2000/svg" xmlns:xlink="http://www.w3.org/1999/xlink" id="Gradient" overflow="hidden"><defs><linearGradient x1="12.9262" y1="59.1188" x2="59.13" y2="12.915" gradientUnits="userSpaceOnUse" id="linear-gradient"><stop offset="0" stop-color="#FF9F00"/><stop offset="0.05089" stop-color="#FE9900"/><stop offset="0.466323" stop-color="#FD7204"/><stop offset="0.797112" stop-color="#FD5907"/><stop offset="1" stop-color="#FD5108"/></linearGradient></defs><path d="M20.43 35.0099 20.43 37.2599 52.1099 37.2599 52.1099 35.0099 20.43 35.0099ZM30.6675 48.8252 41.8725 48.8252 41.8725 46.5752 30.6675 46.5752 30.6675 48.8252ZM35.145 31.3651 37.395 31.3651 37.395 26.8651 41.8725 26.8651 41.8725 24.6151 37.395 24.6151 37.395 20.1377 35.145 20.1377 35.145 24.6151 30.6675 24.6151 30.6675 26.8651 35.145 26.8651 35.145 31.3651ZM30.6675 46.5752 30.6675 48.8252 41.8725 48.8252 41.8725 46.5752 30.6675 46.5752ZM37.395 24.6151 37.395 20.1377 35.145 20.1377 35.145 24.6151 30.6675 24.6151 30.6675 26.8651 35.145 26.8651 35.145 31.3651 37.395 31.3651 37.395 26.8651 41.8725 26.8651 41.8725 24.6151 37.395 24.6151ZM20.43 35.0099 20.43 37.2599 52.1099 37.2599 52.1099 35.0099 20.43 35.0099ZM37.395 24.6151 37.395 20.1377 35.145 20.1377 35.145 24.6151 30.6675 24.6151 30.6675 26.8651 35.145 26.8651 35.145 31.3651 37.395 31.3651 37.395 26.8651 41.8725 26.8651 41.8725 24.6151 37.395 24.6151ZM30.6675 46.5752 30.6675 48.8252 41.8725 48.8252 41.8725 46.5752 30.6675 46.5752ZM20.43 35.0099 20.43 37.2599 52.1099 37.2599 52.1099 35.0099 20.43 35.0099ZM54.9001 10.125 53.595 12.3525 67.185 36 51.6824 63.0225 26.7974 63.0225 29.4075 58.5 49.095 58.5 62.01 36 49.0275 13.5225 49.2075 13.2075 51.66 8.97748 52.2 8.03252 52.9424 6.72748 19.1025 6.72748 2.22748 36 19.08 65.2725 52.9875 65.2725 69.7725 36 54.9001 10.125ZM24.1875 63.0225 20.385 63.0225 4.83755 36 20.4075 8.97748 49.05 8.97748 46.44 13.4775 22.9949 13.4775 9.99 36 22.9275 58.4775 24.21 56.2275 12.5999 36 24.3 15.7275 47.7225 15.7275 59.4224 36 47.79 56.25 28.1025 56.25 27.99 56.4299 24.1875 63.0225ZM52.1099 35.0099 20.43 35.0099 20.43 37.2599 52.1099 37.2599 52.1099 35.0099ZM30.6675 48.8252 41.8725 48.8252 41.8725 46.5752 30.6675 46.5752 30.6675 48.8252ZM35.145 31.3651 37.395 31.3651 37.395 26.8651 41.8725 26.8651 41.8725 24.6151 37.395 24.6151 37.395 20.1377 35.145 20.1377 35.145 24.6151 30.6675 24.6151 30.6675 26.8651 35.145 26.8651 35.145 31.3651ZM20.43 35.0099 20.43 37.2599 52.1099 37.2599 52.1099 35.0099 20.43 35.0099ZM30.6675 48.8252 41.8725 48.8252 41.8725 46.5752 30.6675 46.5752 30.6675 48.8252ZM35.145 31.3651 37.395 31.3651 37.395 26.8651 41.8725 26.8651 41.8725 24.6151 37.395 24.6151 37.395 20.1377 35.145 20.1377 35.145 24.6151 30.6675 24.6151 30.6675 26.8651 35.145 26.8651 35.145 31.3651Z" fill="url(#linear-gradient)"/></svg>