<svg width="58" height="57" xmlns="http://www.w3.org/2000/svg" xmlns:xlink="http://www.w3.org/1999/xlink" xml:space="preserve" overflow="hidden"><g transform="translate(-1067 -410)"><path d="M51.6562 48.0938 49.5996 51.6562 5.34375 51.6562 5.34375 5.34375 8.90625 5.34375 8.90625 48.0938 51.6562 48.0938ZM17.8125 24.1783 17.8125 44.5312 21.375 44.5312 21.375 17.9577 17.8125 24.1783ZM39.1875 24.1806 39.1875 44.5312 42.75 44.5312 42.75 17.96 39.1875 24.1806ZM25.0077 20.6388 25.0077 44.5312 28.5702 44.5312 28.5702 14.4181 25.0077 20.6388ZM32.0625 30.0955 32.0625 44.5312 35.625 44.5312 35.625 23.8748 32.0625 30.0955Z" transform="matrix(1.01754 0 0 1 1067 410)"/></g></svg>