<svg width="72" height="72" viewBox="0 0 72 72" xmlns="http://www.w3.org/2000/svg" xmlns:xlink="http://www.w3.org/1999/xlink" id="Gradient" overflow="hidden"><defs><linearGradient x1="12.0465" y1="63.0023" x2="60.853" y2="14.1958" gradientUnits="userSpaceOnUse" id="Gradient-2"><stop offset="0" stop-color="#FF9F00"/><stop offset="0.05089" stop-color="#FE9900"/><stop offset="0.466323" stop-color="#FD7204"/><stop offset="0.797112" stop-color="#FD5907"/><stop offset="1" stop-color="#FD5108"/></linearGradient></defs><path d="M18.7615 27.7476C13.8884 27.7476 9.92358 23.7827 9.92358 18.9097 9.92358 14.0366 13.8884 10.0728 18.7615 10.0728 23.6345 10.0728 27.5994 14.0366 27.5994 18.9097 27.5994 23.7827 23.6345 27.7476 18.7615 27.7476ZM18.7615 12.3228C15.1287 12.3228 12.1736 15.2778 12.1736 18.9097 12.1736 22.5425 15.1287 25.4976 18.7615 25.4976 22.3943 25.4976 25.3494 22.5425 25.3494 18.9097 25.3494 15.2778 22.3943 12.3228 18.7615 12.3228ZM53.075 27.7476C48.2019 27.7476 44.2371 23.7827 44.2371 18.9097 44.2371 14.0366 48.2019 10.0728 53.075 10.0728 57.948 10.0728 61.9124 14.0366 61.9124 18.9097 61.9124 23.7827 57.948 27.7476 53.075 27.7476ZM53.075 12.3228C49.4421 12.3228 46.4871 15.2778 46.4871 18.9097 46.4871 22.5425 49.4421 25.4976 53.075 25.4976 56.7073 25.4976 59.6624 22.5425 59.6624 18.9097 59.6624 15.2778 56.7073 12.3228 53.075 12.3228ZM36.9695 45.0796C32.8718 45.0796 29.5383 41.7456 29.5383 37.6479 29.5383 33.5503 32.8718 30.2173 36.9695 30.2173 41.0671 30.2173 44.4006 33.5503 44.4006 37.6479 44.4006 41.7456 41.0671 45.0796 36.9695 45.0796ZM36.9695 32.4673C34.1125 32.4673 31.7883 34.7915 31.7883 37.6479 31.7883 40.5054 34.1125 42.8296 36.9695 42.8296 39.8264 42.8296 42.1506 40.5054 42.1506 37.6479 42.1506 34.7915 39.8264 32.4673 36.9695 32.4673ZM59.3933 29.8687 46.7454 29.8687 44.446 32.9419 46.2478 34.2896 47.8723 32.1187 58.2224 32.1187 67.303 45.0815 63.433 55.27 58.9575 39.4546 56.6189 39.4546 62.0928 58.7982 61.9543 59.1626 51.856 59.1626 50.2877 61.4126 63.5061 61.4126 69.8293 44.7671 59.3933 29.8687ZM45.4062 44.731 47.024 47.4993 49.0699 39.4546 46.7482 39.4546 45.4062 44.731ZM25.5085 39.2417 25.5085 50.1352 27.7585 46.2847 27.7585 39.2417 25.5085 39.2417ZM27.2205 29.8687 10.4915 29.8687 2.17065 44.8101 10.4568 61.4126 22.386 61.4126 22.386 59.1626 12.1736 59.1626 12.1736 39.2417 9.92358 39.2417 9.92358 55.3058 4.71362 44.8667 11.8137 32.1187 25.9275 32.1187 27.2976 34.4692 29.2419 33.3364 27.2205 29.8687ZM43.512 46.5688 30.6321 46.5688 24.5276 57.0151 26.9075 61.9272 47.0261 61.7739 49.4128 57.0347M42.1975 48.8188 46.863 57.0952 45.6345 59.5337 43.6594 59.5487 43.6594 53.5063 41.4094 53.5063 41.4094 59.5659 32.4084 59.6343 32.4084 53.5063 30.1584 53.5063 30.1584 59.6515 28.3118 59.6655 27.0754 57.1147 31.9231 48.8188" fill="url(#Gradient-2)"/></svg>