<svg width="72" height="72" viewBox="0 0 72 72" xmlns="http://www.w3.org/2000/svg" xmlns:xlink="http://www.w3.org/1999/xlink" id="Gradient" overflow="hidden"><defs><linearGradient x1="15.075" y1="65.7337" x2="59.5913" y2="21.2175" gradientUnits="userSpaceOnUse" id="linear-gradient"><stop offset="0" stop-color="#FF9F00"/><stop offset="0.05089" stop-color="#FE9900"/><stop offset="0.466323" stop-color="#FD7204"/><stop offset="0.797112" stop-color="#FD5907"/><stop offset="1" stop-color="#FD5108"/></linearGradient></defs><path d="M65.8687 40.77 65.8687 31.68 64.0012 31.68 62.4937 24.2775 58.6912 25.065 55.1363 16.7625 48.5888 19.5525 43.6387 12.42 35.6287 18 30.0938 12.7126 11.9812 31.68 7.36874 31.68 7.36874 36.5175 4.53371 39.4875 7.36874 42.1875 7.36874 58.0275 13.3987 58.0275 13.7138 59.58 16.3913 59.04 16.4138 59.085 16.7063 58.9725 21.2962 58.0275 64.5413 58.0275 65.8462 55.7775 9.61874 55.7775 9.61874 33.93 63.6187 33.93 63.6187 52.4025 65.8687 52.4025 65.8687 48.8925 67.4663 48.5776 65.8687 40.77ZM15.1087 31.68 30.1612 15.885 33.7388 19.305 15.8738 31.68 15.1087 31.68ZM19.8338 31.68 43.0762 15.5474 46.4737 20.4749 20.2837 31.68 19.8338 31.68ZM25.9988 31.68 53.9663 19.71 56.4412 25.5151 26.3587 31.68 25.9988 31.68ZM37.5637 31.68 60.7388 26.9324 61.7063 31.68 37.5637 31.68ZM37.7608 39.9121C36.3194 39.9121 35.3592 40.8525 34.878 42.7334L39.9009 42.7334 39.2637 44.2166 34.6517 44.2166 34.6319 45.0801 39.0154 45.0801 38.3782 46.5632 34.7967 46.5632C35.2339 48.7319 36.2513 49.8152 37.8421 49.8152 38.8726 49.8152 39.9295 49.3823 41.0127 48.5188L40.993 51.6279C40.0723 52.1619 39.0154 52.4299 37.8223 52.4299 36.0931 52.4299 34.7 51.874 33.6431 50.7622 32.6829 49.7603 32.0589 48.3606 31.7688 46.5632L30.1846 46.5632 30.8218 45.0801 31.6458 45.0801 31.6458 44.5439C31.6458 44.3528 31.6524 44.2429 31.6656 44.2166L30.1648 44.2166 30.802 42.7334 31.8523 42.7334C32.1819 41.0723 32.8609 39.7627 33.8892 38.8003 34.9747 37.7588 36.3326 37.2358 37.9651 37.2358 39.1187 37.2358 40.3667 37.5808 41.7137 38.2664L40.4568 40.8394C39.4966 40.2219 38.5979 39.9121 37.7608 39.9121Z" fill="url(#linear-gradient)"/></svg>