<svg width="32" height="32" viewBox="0 0 32 32" xmlns="http://www.w3.org/2000/svg" xmlns:xlink="http://www.w3.org/1999/xlink" id="Artwork" overflow="hidden"><style>
.MsftOfcThm_Text1_Fill_v2 {
 fill:#000000; 
}
</style>
<path d="M27.9902 4.05389 27.9934 4.05273 27.9758 24 25.9753 24 25.9896 6 6 6 6 26 27.9732 26 27.9732 26.03 26.5938 28 4 28 4 4 28 4 27.9902 4.05389ZM13.1424 12 12 12 12 20 13.1424 20 13.1424 12M15.1424 10 15.1424 22 10 22 10 10 15.1424 10ZM20.019 12 18.8766 12 18.8766 20 20.019 20 20.019 12M22.019 10 22.019 22 16.8766 22 16.8766 10 22.019 10Z" class="MsftOfcThm_Text1_Fill_v2" stroke="none" stroke-width="1" stroke-linecap="butt" stroke-linejoin="miter" stroke-miterlimit="4" fill="#000000" fill-opacity="1"/></svg>