<svg width="58" height="57" xmlns="http://www.w3.org/2000/svg" xmlns:xlink="http://www.w3.org/1999/xlink" xml:space="preserve" overflow="hidden"><g transform="translate(-163 -410)"><path d="M14.2646 43.765 14.2646 47.323 10.6992 47.323 10.6992 43.765 14.2646 43.765ZM43.8342 24.65 46.9313 30.788 41.9622 33.5408 41.6866 37.7593 51.6562 32.2404 45.4115 19.8618 11.637 36.9437 30.725 13.166 36.1252 17.1012 33.4677 20.5934 34.8635 24.6397 41.1636 16.3645 30.0737 8.28743 9.72668 33.6337 13.7907 8.40387 20.5873 9.23958 20.1167 12.4853 23.3561 14.7527 23.3885 14.7574 24.6402 6.15055 10.8172 4.45312 5.36137 38.3143 5.34375 52.5469 49.9117 52.5469 49.9117 38.3143 16.8126 38.3143 43.8342 24.65ZM46.3463 41.8724 46.3463 48.9886 8.9091 48.9886 8.9091 41.8724 46.3463 41.8724Z" transform="matrix(1.01754 0 0 1 163 410)"/></g></svg>