<svg width="58" height="57" xmlns="http://www.w3.org/2000/svg" xmlns:xlink="http://www.w3.org/1999/xlink" xml:space="preserve" overflow="hidden"><g transform="translate(-1163 -410)"><path d="M10.6875 5.34375 10.6875 51.6562 43.818 51.6562 46.3125 48.0938 14.25 48.0938 14.25 37.3957 42.75 37.3957 42.75 44.5312 46.3125 44.5312 46.3125 5.34375 10.6875 5.34375ZM42.75 8.90625 42.75 19.5938 14.25 19.5938 14.25 8.90625 42.75 8.90625ZM14.25 33.8332 14.25 23.1562 42.75 23.1562 42.75 33.8332 14.25 33.8332ZM21.375 16.0312 17.8125 16.0312 17.8125 12.4688 21.375 12.4688 21.375 16.0312ZM39.1875 16.0312 24.9375 16.0312 24.9375 12.4688 39.1875 12.4688 39.1875 16.0312ZM17.8125 26.7188 21.375 26.7188 21.375 30.2812 17.8125 30.2812 17.8125 26.7188ZM39.1875 26.7188 39.1875 30.2812 24.9375 30.2812 24.9375 26.7188 39.1875 26.7188ZM17.8125 40.9688 21.375 40.9688 21.375 44.5312 17.8125 44.5312 17.8125 40.9688ZM24.9375 40.9688 39.1875 40.9688 39.1875 44.5312 24.9375 44.5312 24.9375 40.9688Z" transform="matrix(1.01754 0 0 1 1163 410)"/></g></svg>