<svg width="57" height="58" xmlns="http://www.w3.org/2000/svg" xmlns:xlink="http://www.w3.org/1999/xlink" xml:space="preserve" overflow="hidden"><g transform="translate(-368 -554)"><path d="M29.4063 21.3542 10.7475 21.3542 10.7475 17.7916 29.4063 17.7916 29.4063 21.3542ZM10.7475 28.4913 29.4063 28.4913 29.4063 24.9288 10.7475 24.9288 10.7475 28.4913ZM10.7475 35.545 22.6274 35.545 22.6274 31.9825 10.7475 31.9825 10.7475 35.545ZM40.1382 38.5074 48.2277 30.4186 42.476 24.6662 35.5372 31.6053 37.3995 33.4679 42.0095 28.6594 42.0095 33.8078 28.233 48.1773 20.3148 47.9806 21.1002 41.0035 42.476 19.6285 53.2653 30.4186 42.657 41.0261 40.1382 38.5074ZM34.9337 36.0397 33.0185 34.1241 24.5009 42.6422 24.2895 44.5156 26.7492 44.5765 34.9337 36.0397ZM41.7619 42.75 45.3244 42.75 45.3244 53.4375 3.5625 53.4375 3.5625 3.5625 36.9706 3.5625 46.3125 13.3336 46.3125 17.8125 32.0625 17.8125 32.0625 7.125 7.125 7.125 7.125 49.875 41.7619 49.875 41.7619 42.75ZM35.625 14.25 42.1864 14.25 35.7119 7.40854 35.625 14.25Z" transform="matrix(1 0 0 1.01754 368 554)"/></g></svg>