<svg viewBox="0 0 72 72" xmlns="http://www.w3.org/2000/svg" xmlns:xlink="http://www.w3.org/1999/xlink" id="Gradient" overflow="hidden"><defs><linearGradient x1="4.00314" y1="68.0016" x2="68.0031" y2="4.00159" gradientUnits="userSpaceOnUse" id="Gradient-2"><stop offset="0" stop-color="#FF9F00"/><stop offset="0.05089" stop-color="#FE9900"/><stop offset="0.466323" stop-color="#FD7204"/><stop offset="0.797112" stop-color="#FD5907"/><stop offset="1" stop-color="#FD5108"/></linearGradient></defs><path d="M41.6111 65.7534 6.25506 65.7534 6.2575 12.0043 4.00473 12.0043 4.00473 68.0032 43.8615 68.0032 43.8615 59.9957 68.0047 59.9957 68.0047 4.00317 21.9979 4.00317 22.0091 12.0043 11.1061 12.0043 9.80667 14.2541 29.4116 14.2541 29.4116 26.3047 41.6111 26.3047 41.6111 65.7534ZM31.6619 24.0549 31.6619 15.6877 40.6826 24.0549 31.6619 24.0549ZM65.7469 57.7398 43.8578 57.7398 43.8578 23.9277 30.9956 11.9982 24.2558 11.9982 24.2558 6.261 65.7469 6.261 65.7469 57.7398ZM18.3247 28.709C17.7895 28.3221 16.7451 27.8768 15.1916 27.3732L15.1916 23.8631C15.8444 23.9061 16.2948 24.1456 16.5428 24.5817 16.6864 24.8335 16.7843 25.2328 16.8365 25.7793L19.4115 25.7793C19.3724 24.3053 18.8012 23.2397 17.6981 22.5825 17.0911 22.171 16.2556 21.9253 15.1916 21.8455L15.1916 20.6018 14.2615 20.6018 14.2615 21.8271C13.5957 21.8762 13.0898 21.953 12.7439 22.0574 12.176 22.2232 11.6603 22.5242 11.1969 22.9603 10.8379 23.2981 10.5589 23.7003 10.3598 24.1671 10.1607 24.6339 10.0612 25.1529 10.0612 25.7241 10.0612 26.59 10.3174 27.3301 10.8298 27.9443 11.3421 28.5585 12.2217 29.0376 13.4684 29.3815L14.2615 29.6026 14.2615 33.5364C13.5174 33.4136 13.018 33.1465 12.7635 32.7349 12.6003 32.4709 12.473 31.9519 12.3816 31.178L9.73806 31.178C9.71847 32.8793 10.2668 34.0831 11.383 34.7894 12.0161 35.1825 12.9756 35.4466 14.2615 35.5817L14.2615 37.415 15.2112 37.415 15.2112 35.5633C16.223 35.4896 17.0976 35.2377 17.8352 34.8078 19.0428 34.1077 19.6465 32.9837 19.6465 31.4359 19.6465 30.2629 19.206 29.3539 18.3247 28.709ZM14.2615 27.1152C13.785 26.9739 13.4325 26.8204 13.2041 26.6546 12.7928 26.3536 12.5872 25.9452 12.5872 25.4293 12.5872 24.9564 12.7243 24.5832 12.9984 24.3099 13.2726 24.0366 13.6936 23.8938 14.2615 23.8815L14.2615 27.1152ZM16.3176 33.1772C16.0826 33.3369 15.7073 33.4474 15.1916 33.5089L15.1916 29.9067C15.7399 30.097 16.1283 30.2813 16.3568 30.4594 16.7418 30.7665 16.9344 31.1841 16.9344 31.7123 16.9344 32.4064 16.7288 32.8947 16.3176 33.1772ZM30.8242 45.5723 9.73751 45.5723 9.73751 43.3225 32.1233 43.3225 30.8242 45.5723ZM26.5073 51.9691 9.73751 51.9691 9.73751 49.7193 27.8063 49.7193 26.5073 51.9691ZM26.4622 58.3659 9.73751 58.3659 9.73751 56.1162 27.7612 56.1162 26.4622 58.3659ZM59.8349 30.6783 47.9941 30.6783 47.9941 28.4285 61.125 28.4441 59.8349 30.6783ZM59.928 37.534 47.9941 37.534 47.9941 35.2843 61.2271 35.2843 59.928 37.534ZM59.7707 44.9483 47.9941 44.9483 47.9941 42.6986 61.0697 42.6986 59.7707 44.9483Z" fill="url(#Gradient-2)"/></svg>