<svg viewBox="0 0 72 72" xmlns="http://www.w3.org/2000/svg" xmlns:xlink="http://www.w3.org/1999/xlink" id="Gradient" overflow="hidden"><defs><linearGradient x1="11.1488" y1="63.6944" x2="56.1767" y2="18.6665" gradientUnits="userSpaceOnUse" id="Gradient-2"><stop offset="0" stop-color="#FF9F00"/><stop offset="0.05089" stop-color="#FE9900"/><stop offset="0.466323" stop-color="#FD7204"/><stop offset="0.797112" stop-color="#FD5907"/><stop offset="1" stop-color="#FD5108"/></linearGradient></defs><path d="M68 54.2314 56.2489 54.2617 56.2489 43.9891 65.6842 43.9891 65.6842 51.2357 68 51.2357 68 30.4898 53.9986 30.4898 53.9986 54.2987 48.8291 54.2987 48.8291 14.7499 46.5788 18.6412 46.5788 46.2798 43.3017 46.2798 33.7769 10.482 15.9969 10.482 15.9969 30.4898 18.2452 30.4898 18.2452 12.7648 31.9965 12.7648 39.6124 40.4648 25.9959 40.4657 25.9959 34.4841 4 34.4841 4 56.5456 9.1034 56.5456C10.0304 59.2896 12.6271 61.2732 15.6838 61.2732 18.7404 61.2732 21.3371 59.2896 22.2641 56.5456 22.4989 55.8505 22.6317 55.109 22.6317 54.3358 22.6317 54.3233 22.6299 54.3112 22.6298 54.2987 22.6095 50.4903 19.5022 47.3983 15.6838 47.3983 11.8653 47.3983 8.75797 50.4903 8.7377 54.2987L6.25022 54.2987 6.25022 36.7386 23.7457 36.7386 23.7457 42.7126 40.1441 42.7116 41.5212 48.5266 46.5788 48.5266 46.5788 54.2987 40.6022 54.2987C40.0721 51.4728 37.5868 49.3263 34.605 49.3263 31.6232 49.3263 29.1383 51.4728 28.6083 54.2987L25.6909 54.2987C25.691 54.3112 25.693 54.3233 25.693 54.3358 25.693 55.0875 25.6076 55.8276 25.4451 56.5456L28.6083 56.5456C29.1383 59.3715 31.6232 61.518 34.605 61.518 37.5868 61.518 40.0721 59.3715 40.6022 56.5456L66.662 56.5456 66.6835 56.5085 68 54.2314ZM20.3778 54.2987C20.3779 54.3114 20.3815 54.3231 20.3815 54.3358 20.3815 55.1389 20.1595 55.884 19.8017 56.5456 19.0073 58.0145 17.4695 59.0264 15.6838 59.0264 13.898 59.0264 12.3603 58.0145 11.5659 56.5456 11.208 55.884 10.986 55.1389 10.986 54.3358 10.986 54.3231 10.9897 54.3114 10.9898 54.2987 11.0103 51.73 13.1064 49.6451 15.6838 49.6451 18.2612 49.6451 20.3572 51.73 20.3778 54.2987ZM34.605 59.2712C32.8734 59.2712 31.4222 58.1175 30.9373 56.5456 30.8269 56.1878 30.7502 55.8155 30.7502 55.4221 30.7502 55.0288 30.8269 54.6564 30.9373 54.2987 31.4222 52.7267 32.8734 51.5731 34.605 51.5731 36.3366 51.5731 37.7881 52.7267 38.2732 54.2987 38.3836 54.6564 38.4604 55.0288 38.4604 55.4221 38.4604 55.8155 38.3835 56.1878 38.2732 56.5456 37.7881 58.1175 36.3366 59.2712 34.605 59.2712ZM65.6842 41.7423 56.2489 41.7423 56.2489 32.8145 65.6842 32.8145 65.6842 41.7423Z" fill="url(#Gradient-2)"/></svg>