<svg width="72" height="72" viewBox="0 0 72 72" xmlns="http://www.w3.org/2000/svg" xmlns:xlink="http://www.w3.org/1999/xlink" id="Gradient" overflow="hidden"><defs><linearGradient x1="9.24187" y1="69.9919" x2="62.1169" y2="17.1169" gradientUnits="userSpaceOnUse" id="linear-gradient"><stop offset="0" stop-color="#FF9F00"/><stop offset="0.05089" stop-color="#FE9900"/><stop offset="0.466323" stop-color="#FD7204"/><stop offset="0.797112" stop-color="#FD5907"/><stop offset="1" stop-color="#FD5108"/></linearGradient></defs><path d="M9.58502 29.2275 9.58502 36.99 17.3699 36.99 17.3699 29.2275 9.58502 29.2275ZM15.1199 34.74 11.835 34.74 11.835 31.4775 15.1199 31.4775 15.1199 34.74ZM9.58502 39.2625 9.58502 47.0249 17.3699 47.0249 17.3699 39.2625 9.58502 39.2625ZM15.1199 44.7749 11.835 44.7749 11.835 41.5125 15.1199 41.5125 15.1199 44.7749ZM9.58502 29.2275 9.58502 36.99 17.3699 36.99 17.3699 29.2275 9.58502 29.2275ZM15.1199 34.74 11.835 34.74 11.835 31.4775 15.1199 31.4775 15.1199 34.74ZM9.58502 39.2625 9.58502 47.0249 17.3699 47.0249 17.3699 39.2625 9.58502 39.2625ZM15.1199 44.7749 11.835 44.7749 11.835 41.5125 15.1199 41.5125 15.1199 44.7749ZM9.58502 29.2275 9.58502 36.99 17.3699 36.99 17.3699 29.2275 9.58502 29.2275ZM15.1199 34.74 11.835 34.74 11.835 31.4775 15.1199 31.4775 15.1199 34.74ZM9.58502 39.2625 9.58502 47.0249 17.3699 47.0249 17.3699 39.2625 9.58502 39.2625ZM15.1199 44.7749 11.835 44.7749 11.835 41.5125 15.1199 41.5125 15.1199 44.7749ZM9.58502 39.2625 9.58502 47.0249 17.3699 47.0249 17.3699 39.2625 9.58502 39.2625ZM15.1199 44.7749 11.835 44.7749 11.835 41.5125 15.1199 41.5125 15.1199 44.7749ZM9.58502 29.2275 9.58502 36.99 17.3699 36.99 17.3699 29.2275 9.58502 29.2275ZM15.1199 34.74 11.835 34.74 11.835 31.4775 15.1199 31.4775 15.1199 34.74ZM9.58502 29.2275 9.58502 36.99 17.3699 36.99 17.3699 29.2275 9.58502 29.2275ZM15.1199 34.74 11.835 34.74 11.835 31.4775 15.1199 31.4775 15.1199 34.74ZM9.58502 39.2625 9.58502 47.0249 17.3699 47.0249 17.3699 39.2625 9.58502 39.2625ZM15.1199 44.7749 11.835 44.7749 11.835 41.5125 15.1199 41.5125 15.1199 44.7749ZM9.58502 39.2625 9.58502 47.0249 17.3699 47.0249 17.3699 39.2625 9.58502 39.2625ZM15.1199 44.7749 11.835 44.7749 11.835 41.5125 15.1199 41.5125 15.1199 44.7749ZM9.58502 29.2275 9.58502 36.99 17.3699 36.99 17.3699 29.2275 9.58502 29.2275ZM15.1199 34.74 11.835 34.74 11.835 31.4775 15.1199 31.4775 15.1199 34.74ZM9.58502 29.2275 9.58502 36.99 17.3699 36.99 17.3699 29.2275 9.58502 29.2275ZM15.1199 34.74 11.835 34.74 11.835 31.4775 15.1199 31.4775 15.1199 34.74ZM9.58502 39.2625 9.58502 47.0249 17.3699 47.0249 17.3699 39.2625 9.58502 39.2625ZM15.1199 44.7749 11.835 44.7749 11.835 41.5125 15.1199 41.5125 15.1199 44.7749ZM9.58502 47.0249 17.3699 47.0249 17.3699 39.2625 9.58502 39.2625 9.58502 47.0249ZM11.835 41.5125 15.1199 41.5125 15.1199 44.7749 11.835 44.7749 11.835 41.5125ZM9.58502 29.2275 9.58502 36.99 17.3699 36.99 17.3699 29.2275 9.58502 29.2275ZM15.1199 34.74 11.835 34.74 11.835 31.4775 15.1199 31.4775 15.1199 34.74ZM67.5 59.625 67.5 24.75 51.75 24.75 51.75 6.75 26.3925 6.75 25.0876 9 49.5 9 49.5 63 41.085 63 41.085 47.0474 30.915 47.0474 30.915 63 22.5 63 22.5 6.75 20.25 6.75 20.25 24.75 4.5 24.75 4.5 65.25 66.2175 65.25 67.5 63 51.75 63 51.75 27 65.25 27 65.25 59.625 67.5 59.625ZM20.25 63 6.75 63 6.75 27 20.25 27 20.25 63ZM38.835 62.8875 33.165 62.8875 33.165 49.2974 38.835 49.2974 38.835 62.8875ZM17.3699 39.2625 9.58502 39.2625 9.58502 47.0249 17.3699 47.0249 17.3699 39.2625ZM15.1199 44.7749 11.835 44.7749 11.835 41.5125 15.1199 41.5125 15.1199 44.7749ZM17.3699 29.2275 9.58502 29.2275 9.58502 36.99 17.3699 36.99 17.3699 29.2275ZM15.1199 34.74 11.835 34.74 11.835 31.4775 15.1199 31.4775 15.1199 34.74ZM9.58502 29.2275 9.58502 36.99 17.3699 36.99 17.3699 29.2275 9.58502 29.2275ZM15.1199 34.74 11.835 34.74 11.835 31.4775 15.1199 31.4775 15.1199 34.74ZM9.58502 39.2625 9.58502 47.0249 17.3699 47.0249 17.3699 39.2625 9.58502 39.2625ZM15.1199 44.7749 11.835 44.7749 11.835 41.5125 15.1199 41.5125 15.1199 44.7749ZM9.58502 39.2625 9.58502 47.0249 17.3699 47.0249 17.3699 39.2625 9.58502 39.2625ZM15.1199 44.7749 11.835 44.7749 11.835 41.5125 15.1199 41.5125 15.1199 44.7749ZM9.58502 29.2275 9.58502 36.99 17.3699 36.99 17.3699 29.2275 9.58502 29.2275ZM15.1199 34.74 11.835 34.74 11.835 31.4775 15.1199 31.4775 15.1199 34.74ZM9.58502 29.2275 9.58502 36.99 17.3699 36.99 17.3699 29.2275 9.58502 29.2275ZM15.1199 34.74 11.835 34.74 11.835 31.4775 15.1199 31.4775 15.1199 34.74ZM9.58502 39.2625 9.58502 47.0249 17.3699 47.0249 17.3699 39.2625 9.58502 39.2625ZM15.1199 44.7749 11.835 44.7749 11.835 41.5125 15.1199 41.5125 15.1199 44.7749ZM9.58502 39.2625 9.58502 47.0249 17.3699 47.0249 17.3699 39.2625 9.58502 39.2625ZM15.1199 44.7749 11.835 44.7749 11.835 41.5125 15.1199 41.5125 15.1199 44.7749ZM9.58502 29.2275 9.58502 36.99 17.3699 36.99 17.3699 29.2275 9.58502 29.2275ZM15.1199 34.74 11.835 34.74 11.835 31.4775 15.1199 31.4775 15.1199 34.74ZM9.58502 29.2275 9.58502 36.99 17.3699 36.99 17.3699 29.2275 9.58502 29.2275ZM15.1199 34.74 11.835 34.74 11.835 31.4775 15.1199 31.4775 15.1199 34.74ZM9.58502 39.2625 9.58502 47.0249 17.3699 47.0249 17.3699 39.2625 9.58502 39.2625ZM15.1199 44.7749 11.835 44.7749 11.835 41.5125 15.1199 41.5125 15.1199 44.7749ZM37.125 20.4749 37.125 15.03 34.875 15.03 34.875 20.4749 29.43 20.4749 29.43 22.7249 34.875 22.7249 34.875 28.1699 37.125 28.1699 37.125 22.7249 42.57 22.7249 42.57 20.4749 37.125 20.4749ZM24.7725 33.7275 24.7725 41.49 32.535 41.49 32.535 33.7275 24.7725 33.7275ZM30.285 39.24 27.0225 39.24 27.0225 35.9775 30.285 35.9775 30.285 39.24ZM9.58502 29.2275 9.58502 36.99 17.3699 36.99 17.3699 29.2275 9.58502 29.2275ZM15.1199 34.74 11.835 34.74 11.835 31.4775 15.1199 31.4775 15.1199 34.74ZM9.58502 39.2625 9.58502 47.0249 17.3699 47.0249 17.3699 39.2625 9.58502 39.2625ZM15.1199 44.7749 11.835 44.7749 11.835 41.5125 15.1199 41.5125 15.1199 44.7749ZM54.6975 29.2275 54.6975 36.99 62.4825 36.99 62.4825 29.2275 54.6975 29.2275ZM60.2325 34.74 56.9475 34.74 56.9475 31.4775 60.2325 31.4775 60.2325 34.74ZM54.6975 39.2625 54.6975 47.0249 62.4825 47.0249 62.4825 39.2625 54.6975 39.2625ZM60.2325 44.7749 56.9475 44.7749 56.9475 41.5125 60.2325 41.5125 60.2325 44.7749ZM39.4875 33.7275 39.4875 41.49 47.25 41.49 47.25 33.7275 39.4875 33.7275ZM45 39.24 41.7375 39.24 41.7375 35.9775 45 35.9775 45 39.24Z" fill="url(#linear-gradient)"/></svg>