<svg width="58" height="58" xmlns="http://www.w3.org/2000/svg" xmlns:xlink="http://www.w3.org/1999/xlink" xml:space="preserve" overflow="hidden"><g transform="translate(-461 -554)"><path d="M464.625 583.046C464.625 569.029 476.008 557.625 490 557.625 503.992 557.625 515.375 569.029 515.375 583.046 515.375 596.451 504.958 607.438 491.812 608.375L491.812 604.743C502.959 603.816 511.75 594.448 511.75 583.046 511.75 571.031 501.994 561.257 490 561.257 478.006 561.257 468.25 571.031 468.25 583.046 468.25 594.365 476.912 603.689 487.943 604.731L485.616 608.061C473.71 605.971 464.625 595.563 464.625 583.046ZM498.244 587.318C498.244 590.245 497.265 592.364 495.334 593.616 494.358 594.248 492.983 594.684 491.247 594.915L491.247 597.484 488.528 597.484 488.528 594.884C485.744 594.556 483.772 593.437 482.704 591.517 482.076 590.398 481.756 588.885 481.756 587.02L481.756 586.566 485.403 586.566 485.428 586.993C485.507 588.345 485.715 589.334 486.047 589.93 486.525 590.796 487.353 591.323 488.528 591.561L488.528 583.904C486.525 583.449 484.979 582.746 483.955 581.794 482.786 580.707 482.193 579.193 482.193 577.297 482.193 575.602 482.82 574.054 484.055 572.699 485.155 571.493 486.666 570.823 488.528 570.665L488.528 568.516 491.247 568.516 491.247 570.624C493.203 570.833 494.751 571.477 495.848 572.543 497.039 573.699 497.672 575.24 497.729 577.125L497.743 577.594 494.129 577.594 494.09 577.182C494.022 576.462 493.829 575.838 493.514 575.327 493.018 574.529 492.271 574.07 491.247 573.929 491.234 573.927 491.224 573.923 491.212 573.921L491.212 580.713C491.224 580.716 491.234 580.72 491.247 580.724 493.531 581.383 495.07 581.994 495.938 582.59 497.469 583.658 498.244 585.247 498.244 587.318ZM488.528 573.887C488.716 573.899 488.627 573.925 488.528 573.942 487.703 574.088 487.081 574.41 486.699 574.923 486.171 575.63 485.914 576.345 485.914 577.109 485.914 578.012 486.199 578.691 486.786 579.189L486.787 579.189C487.237 579.573 487.835 579.861 488.528 580.08 488.63 580.113 488.713 580.159 488.528 580.188L488.528 573.887ZM494.525 588.084C494.525 586.926 494.118 586.073 493.28 585.481 492.858 585.178 492.174 584.883 491.247 584.598 491.233 584.594 491.225 584.59 491.212 584.585L491.212 591.726C491.224 591.725 491.234 591.72 491.247 591.719 492.593 591.557 493.515 591.006 494.052 590.04L494.053 590.038C494.367 589.483 494.525 588.827 494.525 588.084Z"/></g></svg>