<svg viewBox="0 0 32 32" xmlns="http://www.w3.org/2000/svg" xmlns:xlink="http://www.w3.org/1999/xlink" id="Artwork" overflow="hidden"><style>
.MsftOfcThm_Text1_Fill_v2 {
 fill:#000000; 
}
</style>
<path d="M30 22 30 7 21 7 18 3 7 3 7 7 2 7 2 30 21.6715 30 23 28 4 28 4.0066 12.9845 7.00269 12.9845 7 26 28.7286 26 30 24 9 24 9.00269 9.00597 28 9 28 22 30 22ZM7.00269 10.9845 4.0066 10.9845 4.0066 9.00597 7.00269 9.00597 7.00269 10.9845ZM9 7 9 5 17.2598 5 18.7421 7 9 7Z" class="MsftOfcThm_Text1_Fill_v2" stroke="none" stroke-width="1" stroke-linecap="butt" stroke-linejoin="miter" stroke-miterlimit="4" fill="#000000" fill-opacity="1"/><rect x="11" y="16" width="15" height="2" class="MsftOfcThm_Text1_Fill_v2" stroke="none" stroke-width="1" stroke-linecap="butt" stroke-linejoin="miter" stroke-miterlimit="4" fill="#000000" fill-opacity="1"/><rect x="11" y="20" width="15" height="2" class="MsftOfcThm_Text1_Fill_v2" stroke="none" stroke-width="1" stroke-linecap="butt" stroke-linejoin="miter" stroke-miterlimit="4" fill="#000000" fill-opacity="1"/><rect x="11" y="12" width="7" height="2" class="MsftOfcThm_Text1_Fill_v2" stroke="none" stroke-width="1" stroke-linecap="butt" stroke-linejoin="miter" stroke-miterlimit="4" fill="#000000" fill-opacity="1"/></svg>