<svg width="112" height="55" xmlns="http://www.w3.org/2000/svg" xmlns:xlink="http://www.w3.org/1999/xlink" xml:space="preserve" overflow="hidden"><g transform="translate(-42 -40)"><path d="M82.9106 23.0197C78.9692 23.6564 76.956 26.567 76.956 31.6887 76.956 36.8105 79.6402 40.289 83.7534 40.289 85.6675 40.289 87.4078 39.6523 91.0642 37.8595L91.0642 42.0293C86.6761 44.0424 84.093 44.665 80.5558 44.665 76.7276 44.665 74.0333 43.6483 71.8343 41.4068 69.5806 39.1511 68.4528 36.1738 68.4528 32.857 68.4528 25.4795 73.9141 20.4891 81.8898 20.4891 87.1875 20.4891 90.8317 22.9106 90.8317 26.4639 90.8317 28.7519 89.1359 30.3284 86.6195 30.3284 85.3279 30.3284 84.2668 29.9909 82.9085 29.2026L82.9085 23.0177 82.9085 23.0177ZM63.4624 32.859C66.9955 28.4042 68.2425 26.6094 68.2425 24.4224 68.2425 22.2355 66.5144 20.4912 64.2041 20.4912 62.7812 20.4912 61.5018 21.1622 60.8752 21.8615L60.8752 30.9348 55.0864 38.6478 55.0864 21.0611 49.5826 21.0611 40.4325 36.2304 40.4325 21.0611 37.2693 21.0611 28.9641 23.0864 28.9641 25.2087 33.4937 25.6675 33.4937 44.2708 39.3492 44.2708 48.1253 29.8494 48.1253 44.2708 54.5387 44.2708 63.4603 32.857 63.4603 32.857ZM11.4785 25.7908C12.8247 25.6271 13.4917 25.5503 14.1283 25.5503 17.9464 25.5503 20.0162 28.0889 20.0162 32.861 20.0162 38.4982 17.4876 41.4391 12.7701 41.4391 12.3759 41.4391 12.1031 41.4391 11.4785 41.4088L11.4785 25.7908 11.4785 25.7908ZM11.4785 44.0445C13.0005 44.2183 14.476 44.2729 15.3653 44.2729 23.2117 44.2729 28.19 39.2521 28.19 31.7878 28.19 25.332 24.4588 20.669 19.4017 20.669 17.2127 20.669 15.7453 21.1177 11.4785 23.6584L11.4785 20.5498 9.11369 20.5498 0 23.3168 0 25.5483 3.77362 25.5483 3.77362 51.5735 0.377969 52.4184 0.377969 54.573 15.2744 54.573 15.2744 52.4184C15.2744 52.4184 11.4765 51.5735 11.4765 51.5735L11.4765 44.0445 11.4765 44.0445Z" transform="matrix(1 0 0 1.00761 42 40.006)"/><path d="M78.6741 14.0414 53.8191 14.0414 58.0536 7.02173 82.9085 7.02173 78.6741 14.0414ZM112 0 87.145 0 82.9106 7.01971 107.766 7.01971 112 0Z" fill="#FD5108" transform="matrix(1 0 0 1.00761 42 40.006)"/></g></svg>